<svg id="Layer_1" data-name="Layer 1" xmlns="http://www.w3.org/2000/svg" viewBox="0 0 213.83 237.95"><defs><style>.cls-1{fill:#0aa4db;}</style></defs><path class="cls-1" d="M79.84,135.6q13.16,7.54,26.28,15.15a1.35,1.35,0,0,0,1.56,0q13-7.56,26.06-15a1.84,1.84,0,0,0,1.06-1.91c-.05-2.86,0-5.72-.05-8.58,0-1.15.25-1.46,1.45-1.46q34,.06,68.06,0a5.44,5.44,0,0,0,2.88-.67,4.83,4.83,0,0,0-2.6-9q-3.93-.06-7.88,0c-.82,0-1-.23-1-1,0-4.09,0-8.19,0-12.29a1.31,1.31,0,0,1,.82-1.34c1-.53,1.94-1.11,2.92-1.67a27.86,27.86,0,0,0,13.71-30.53c-3.35-15.7-20.08-25.4-35.39-20.57a45.32,45.32,0,0,0-9.22,4.52,1.23,1.23,0,0,1-1.45,0q-15.72-9.12-31.49-18.16a1.37,1.37,0,0,1-.76-1.38,55.56,55.56,0,0,0-.12-7.07,27.93,27.93,0,0,0-54.49-4.76,37.61,37.61,0,0,0-1.11,11.71,1.58,1.58,0,0,1-1,1.61Q63.79,41.44,49.52,49.7c-1.1.64-2.18,1.7-3.33,1.78s-2.3-1.09-3.42-1.75a27.24,27.24,0,0,0-19.1-3.83c-11.09,2-18.74,8.32-22.18,19-3.34,10.38-1,19.82,6.42,27.9,2.68,2.92,6.08,4.85,9.5,6.72a1.42,1.42,0,0,1,.85,1.45c0,4.06,0,8.12,0,12.18,0,.8-.22,1-1,1-2.59-.05-5.18,0-7.77,0a4.88,4.88,0,0,0-4.15,1.92,4.6,4.6,0,0,0-.48,5,4.65,4.65,0,0,0,4.49,2.71h34.2q17.22,0,34.44,0c.86,0,1.11.21,1.09,1.08-.06,3.09,0,6.19,0,9.28A1.43,1.43,0,0,0,79.84,135.6Zm-2-21.42c-5.1,0-10.21,0-15.31,0s-10.28,0-15.42,0c-.89,0-1.07-.25-1.07-1.1,0-7.88,0-15.77,0-23.65a9.06,9.06,0,0,1,4.8-8.29l45.4-26.23c2-1.14,3.94-2.28,5.93-3.39a9,9,0,0,1,9.37,0q25.66,14.8,51.31,29.63a8.89,8.89,0,0,1,4.75,8.18c0,7.88,0,15.76.06,23.65,0,1-.3,1.19-1.24,1.19q-15.24,0-30.49,0c-1.06,0-1.27-.33-1.25-1.31.06-3,0-6,0-9a1.44,1.44,0,0,0-.81-1.47q-13.22-7.58-26.37-15.21a1.19,1.19,0,0,0-1.37,0Q93,94.81,79.79,102.42a1.33,1.33,0,0,0-.77,1.36c0,3.09,0,6.18,0,9.27C79.07,114,78.76,114.18,77.89,114.18Z"/><path class="cls-1" d="M204.74,144a37.37,37.37,0,0,0-8.14-5.48,1.57,1.57,0,0,1-1-1.61c.07-2.12,0-4.25,0-6.37,0-1-.29-1.2-1.23-1.2q-12.75.06-25.5,0c-1.08,0-1.25.34-1.24,1.3q0,9.1,0,18.21a8.82,8.82,0,0,1-4.54,7.83c-1.91,1.16-3.87,2.25-5.81,3.37q-22.71,13.1-45.42,26.21a9.22,9.22,0,0,1-9.86.07L85.9,177l-6.83-3.93c0,.39,0,.55,0,.7q0,18.56,0,37.1a22.15,22.15,0,0,0,.57,4.94c3.35,14.64,16.26,23.88,31.14,21.81,11.1-1.53,18.56-8,22.54-18.42,1.53-4,1.64-8.23,1.46-12.46a2.16,2.16,0,0,1,1.31-2.24c9.85-5.64,19.69-11.28,29.47-17,1.59-.93,2.83-1.26,4.31,0a13.45,13.45,0,0,0,2.09,1.22,26.78,26.78,0,0,0,18.53,3.3c11.25-2.13,18.88-8.7,22.1-19.66S212.85,152,204.74,144Z"/><path class="cls-1" d="M45.06,129.37c-1.08.08-2.17,0-3.25,0-7.49,0-15,0-22.48,0-.84,0-1.18.16-1.11,1.06a25.34,25.34,0,0,1,0,3c0,1.49.55,3.28-.21,4.41s-2.45,1.64-3.76,2.38a27.9,27.9,0,0,0,19.5,51.6c4.21-.9,7.85-2.92,11.5-5a1.51,1.51,0,0,0,.85-1.55q0-13.67,0-27.35v-7.41c0-6.69,0-13.37,0-20C46.13,129.6,46,129.3,45.06,129.37Z"/></svg>