<svg width="121" height="108" viewBox="0 0 121 108" fill="none" xmlns="http://www.w3.org/2000/svg">
<path d="M92.4697 68.9895C94.1997 71.4995 96.3897 73.0794 98.2797 74.9294C99.3997 76.0294 99.4197 76.7096 98.2997 77.8196C94.8997 81.1796 91.5297 84.5796 88.3197 88.1196C86.9497 89.6296 86.1297 89.7695 84.6097 88.2595C79.5397 83.1895 74.2397 78.3495 69.1797 73.2795C67.5397 71.6295 66.6197 71.6096 64.9897 73.3196C57.0297 81.6896 48.9297 89.9295 40.8797 98.2195C36.5897 102.629 36.6597 102.55 40.9197 106.8C42.4397 108.32 43.2997 108.179 44.7097 106.719C51.5397 99.6095 58.5097 92.6295 65.3197 85.4995C66.8097 83.9395 67.6897 83.7294 69.3297 85.3794C74.3697 90.4694 79.6797 95.3094 84.7397 100.379C86.2697 101.909 87.0797 102.129 88.6697 100.389C93.7097 94.8794 99.0297 89.6294 104.1 84.1494C105.58 82.5494 106.52 82.6394 107.87 84.1494C109.13 85.5594 110.59 86.7796 111.96 88.0896C112.79 88.8796 113.38 89.1194 113.73 87.6394C115.84 78.8994 118.01 70.1795 120.29 60.9395C110.75 63.6895 101.74 66.2995 92.4697 68.9895Z" fill="#02A0DD"/>
<path d="M60.43 67.9795C61.6 68.5495 62.2801 67.6595 62.9801 66.9795C63.7601 66.2095 64.6 65.4696 65.24 64.5996C66.31 63.1296 67.09 63.0995 68.43 64.4695C72.68 68.8095 77.0801 73.0095 81.4501 77.2395C82.3401 78.0995 83.11 79.4494 84.69 78.6994C86.12 78.0294 85.63 76.6295 85.63 75.5095C85.66 63.6495 85.65 51.7894 85.65 39.9394C85.65 37.4994 85.65 35.0596 85.65 32.6196C85.65 32.6096 85.65 32.6096 85.65 32.6096C85.65 31.7796 84.9701 31.0996 84.1401 31.0996C83.3001 31.0996 82.63 31.7796 82.63 32.6096V32.6196C82.62 46.1896 82.62 59.7496 82.62 73.3196C82.24 73.5896 81.8601 73.8594 81.4801 74.1294C77.9801 70.3394 74.5501 66.4595 70.9501 62.7695C67.0501 58.7695 66.97 58.8395 62.81 62.4695C61.97 62.0295 62.3901 61.2394 62.3901 60.6394C62.3601 42.6194 62.41 24.5996 62.32 6.57956C62.31 4.23956 62.93 3.48956 65.31 3.56956C70.38 3.74956 75.4601 3.6296 80.5401 3.6196C81.7201 3.6196 82.65 3.62952 82.65 5.27952C82.64 11.8895 82.6401 18.4996 82.6401 25.1096C82.6401 26.1096 82.6401 27.1096 82.6401 28.1196C82.6401 28.9496 83.32 29.6294 84.15 29.6294C84.99 29.6294 85.66 28.9496 85.66 28.1196C85.66 27.1596 85.66 26.1995 85.66 25.2395C85.66 18.1895 85.66 11.1296 85.69 4.07956C85.7 2.01956 85.42 0.589604 82.84 0.619604C75.96 0.699604 69.09 0.659369 62.21 0.629369C60.18 0.619369 59.34 1.57955 59.34 3.55955C59.35 24.1895 59.35 44.8094 59.34 65.4394C59.33 66.4194 59.36 67.4495 60.43 67.9795Z" fill="#02A0DD"/>
<path d="M56.1801 71.3996C56.1401 56.5496 56.1102 41.6898 56.2002 26.8398C56.2202 23.9398 55.0402 22.9797 52.2602 23.0397C46.0802 23.1597 39.9002 23.0598 33.7202 23.0798C30.1802 23.0898 29.8801 23.4198 29.8701 27.0898C29.8601 38.0598 29.8701 49.0197 29.8701 59.9897C29.8701 71.1497 29.8701 82.3197 29.8701 93.4797C29.8701 94.7697 29.6902 96.1497 31.3202 96.7097C32.7102 97.1897 33.8502 96.6997 34.8502 95.7397C35.0702 95.5297 35.2702 95.3198 35.4802 95.0998C41.7702 88.6998 48.0301 82.2796 54.3601 75.9196C55.6501 74.6296 56.1801 73.2096 56.1801 71.3996ZM53.1501 70.7997C53.1501 72.0497 52.9302 73.0697 51.9802 74.0197C46.0102 80.0297 40.0901 86.0896 34.1501 92.1296C33.9001 92.3796 33.6002 92.5796 32.8802 93.1496C32.8802 91.6796 32.8802 90.7297 32.8802 89.7797C32.8802 69.6397 32.9201 49.5098 32.8301 29.3698C32.8201 26.8798 33.2202 25.8297 36.0302 25.9897C40.8002 26.2597 45.6002 26.1397 50.3802 26.0297C52.3402 25.9897 53.2001 26.3898 53.1801 28.6198C53.0901 42.6898 53.1301 56.7397 53.1501 70.7997Z" fill="#02A0DD"/>
<path d="M23.25 35.2998C16.78 35.4098 10.3 35.4298 3.82996 35.2898C1.16996 35.2398 0.389987 36.2898 0.419987 38.8298C0.489987 45.0298 0.479974 51.2297 0.469974 57.4197H0.459965L0.449985 61.1997C0.449985 61.2097 0.449985 61.3896 0.449985 61.6396C0.449985 62.4696 1.12996 63.1496 1.95996 63.1496C2.78996 63.1496 3.46997 62.4696 3.46997 61.6396C3.46997 61.2296 3.46997 60.8297 3.46997 60.4197C3.46997 60.3597 3.46997 60.2897 3.46997 60.2297C3.46997 59.2997 3.46997 58.3597 3.46997 57.4297C3.46997 51.7497 3.45999 46.0696 3.44999 40.3896C3.44999 38.8296 3.93997 38.3198 5.49997 38.3398C10.77 38.4098 16.05 38.4798 21.32 38.3098C23.5 38.2398 23.74 39.1897 23.72 40.9597C23.66 49.3197 23.69 57.6798 23.69 66.0398C23.69 74.3998 23.61 82.7599 23.74 91.1199C23.77 93.3599 23.13 94.0497 20.89 93.9797C15.82 93.8197 10.74 93.8697 5.65998 93.9597C3.96998 93.9897 3.42997 93.4497 3.42997 91.7497C3.44997 84.6397 3.44996 77.5297 3.45996 70.4097L3.46997 67.1597C3.46997 67.1497 3.46997 66.9697 3.46997 66.7197C3.46997 66.7097 3.46997 66.7097 3.46997 66.7097C3.46997 66.5197 3.46997 66.3396 3.46997 66.1496H3.35996C3.12996 65.5996 2.58996 65.2097 1.95996 65.2097C1.32996 65.2097 0.789971 65.5996 0.559971 66.1496H0.449985C0.449985 66.3396 0.449985 66.5297 0.449985 66.7197C0.449985 68.1197 0.449985 69.5297 0.449985 70.9297H0.459965C0.469965 78.3597 0.499977 85.7797 0.409977 93.2097C0.379977 95.8497 1.18998 97.0397 3.97998 96.9897C10.35 96.8697 16.73 96.8797 23.1 96.9797C25.85 97.0197 26.76 95.8397 26.75 93.1997C26.69 75.0697 26.69 56.9498 26.75 38.8198C26.77 36.2698 25.85 35.2598 23.25 35.2998Z" fill="#02A0DD"/>
</svg>
