<svg width="71" height="96" viewBox="0 0 71 96" fill="none" xmlns="http://www.w3.org/2000/svg">
<path d="M11.0304 95.8595C10.4004 95.7095 9.77036 95.5692 9.15036 95.3992C3.82036 93.8792 0.240326 89.1894 0.120326 83.5694C0.0903257 81.8094 0.100326 80.0394 0.120326 78.2794C0.130326 77.1494 0.610321 76.5494 1.49032 76.5394C2.40032 76.5194 2.89036 77.1194 2.90036 78.3094C2.93036 80.3794 2.83034 82.4694 3.01034 84.5294C3.44034 89.3394 7.47032 93.0194 12.3003 93.0694C17.3503 93.1194 22.4003 93.0894 27.4403 93.0894C36.4203 93.0894 45.4003 93.1094 54.3803 93.0794C59.1903 93.0694 63.0503 89.7894 63.8803 85.0594C63.9903 84.4594 64.0003 83.8293 64.0003 83.2093C64.0103 74.5993 64.0203 65.9892 64.0003 57.3892C63.9903 52.4192 60.9303 48.6093 56.2303 47.6893C55.4803 47.5393 54.6903 47.5194 53.9203 47.5194C40.2603 47.5094 26.6103 47.5094 12.9503 47.5194C7.95034 47.5194 4.17035 50.4194 3.14035 55.0494C2.95035 55.9194 2.90036 56.8293 2.90036 57.7193C2.88036 62.2393 2.89035 66.7594 2.89035 71.2794C2.89035 71.5894 2.90031 71.8993 2.85031 72.2093C2.74031 72.9193 2.24036 73.4094 1.59036 73.3194C1.10036 73.2594 0.580331 72.8293 0.250331 72.4193C0.0403306 72.1593 0.110316 71.6493 0.110316 71.2493C0.100316 66.7593 0.100316 62.2694 0.110316 57.7794C0.110316 51.5694 3.15036 47.2593 9.03036 45.2193C9.70036 44.9893 9.57034 44.5692 9.57034 44.1392C9.58034 37.6992 9.55035 31.2594 9.58035 24.8194C9.63035 13.7894 16.6703 4.39945 27.2203 1.60945C35.5803 -0.600548 43.0803 1.30935 49.6003 7.00935C50.1703 7.50935 50.5403 8.10938 50.1603 8.78938C49.9403 9.17938 49.3804 9.57944 48.9604 9.59944C48.5204 9.61944 47.9803 9.2693 47.6103 8.9493C45.0303 6.6793 42.1104 5.08931 38.7804 4.20931C26.2104 0.909306 13.5003 9.83938 12.5103 22.7894C12.2603 26.0794 12.3903 29.4093 12.3703 32.7193C12.3503 36.3393 12.3703 39.9694 12.3703 43.5894C12.3703 43.9194 12.3703 44.2492 12.3703 44.6492C14.3103 44.6492 16.1503 44.6492 18.1303 44.6492C18.1303 44.2692 18.1303 43.9094 18.1303 43.5494C18.1303 37.2994 18.1003 31.0394 18.1403 24.7894C18.1903 17.3094 23.2803 11.1194 30.5503 9.57942C39.4603 7.68942 48.3804 14.5592 48.7704 23.6492C48.8804 26.1492 48.8103 28.6593 48.8203 31.1693C48.8303 32.7993 49.3103 33.2794 50.9203 33.2894C51.6303 33.2894 52.3503 33.3094 53.0603 33.2794C53.8803 33.2494 54.5204 32.7993 54.5204 31.9993C54.5004 27.3093 55.1203 22.5694 53.5103 18.0094C53.0203 16.6194 52.3403 15.2893 51.6903 13.9593C51.1803 12.9093 51.2603 12.1393 52.0603 11.6993C52.8103 11.2793 53.5403 11.5694 54.1103 12.5394C56.0803 15.9094 57.2103 19.5493 57.3303 23.4593C57.4103 26.2093 57.4003 28.9693 57.3603 31.7293C57.3303 34.2593 55.5203 36.0294 53.0003 36.0794C52.2003 36.0894 51.3903 36.0894 50.5803 36.0794C47.9103 36.0494 46.1003 34.2894 46.0503 31.5894C46.0103 29.3894 46.0904 27.1893 46.0204 24.9993C45.9804 23.7993 45.9003 22.5793 45.6003 21.4193C44.1203 15.5693 38.5803 11.6594 32.5103 12.0994C26.6703 12.5194 21.7103 17.3293 21.0603 23.1993C20.9803 23.9693 20.9303 24.7394 20.9303 25.5094C20.9203 31.4894 20.9203 37.4593 20.9203 43.4393C20.9203 43.8093 20.9203 44.1793 20.9203 44.7093C21.3603 44.7093 21.7503 44.7093 22.1403 44.7093C32.8203 44.7093 43.5103 44.6893 54.1903 44.7193C60.2703 44.7293 65.1003 48.4593 66.4803 54.1893C66.7303 55.2293 66.8103 56.3293 66.8103 57.4093C66.8403 65.9893 66.8303 74.5592 66.8203 83.1392C66.8103 89.6792 62.7704 94.5093 56.3404 95.7193C56.2304 95.7393 56.1203 95.8195 56.0103 95.8695C41.0103 95.8595 26.0204 95.8595 11.0304 95.8595Z" fill="#4190E2"/>
<path d="M29.7101 80.9997C32.0601 80.9997 34.2201 80.9997 36.3801 80.9997C36.6201 80.9997 36.8701 80.9997 37.2401 80.9997C36.8301 79.0597 36.4801 77.1898 36.0401 75.3398C35.6801 73.7998 36.0201 72.5697 37.2501 71.5297C39.0501 70.0097 39.7501 68.0597 39.3101 65.7197C39.1101 64.6397 39.5101 63.9297 40.3501 63.7497C41.2001 63.5697 41.8701 64.1497 42.0701 65.2597C42.6301 68.4297 41.7401 71.1398 39.4001 73.3398C38.8401 73.8698 38.6301 74.3098 38.8301 75.0898C39.2601 76.7598 39.5801 78.4696 39.9201 80.1696C40.3201 82.1396 39.0201 83.7597 37.0001 83.7897C34.7101 83.8097 32.4201 83.7997 30.1301 83.7897C27.9301 83.7797 26.6301 82.1998 27.0601 80.0498C27.4101 78.2898 27.7701 76.5397 28.2001 74.7897C28.3401 74.2097 28.1801 73.8997 27.7601 73.5297C24.9001 71.0297 23.9701 67.1296 25.3601 63.6496C26.7301 60.2296 30.1401 57.9697 33.8401 58.1997C35.0101 58.2697 36.1901 58.6798 37.3101 59.0798C38.2701 59.4298 38.5601 60.2397 38.1901 60.9997C37.8301 61.7597 37.0801 61.9698 36.1401 61.5698C32.4301 59.9998 28.6201 61.7297 27.7001 65.4597C27.1401 67.7397 27.7101 69.7998 29.5201 71.3398C30.9201 72.5298 31.3201 73.8796 30.8701 75.6296C30.4301 77.3596 30.1101 79.1297 29.7101 80.9997Z" fill="#4190E2"/>
<path d="M64.8101 38.8096C65.3101 39.0896 65.7101 39.2095 65.9801 39.4695C66.9201 40.3595 67.8401 41.2795 68.7401 42.2095C69.3801 42.8695 69.4001 43.7195 68.8401 44.2795C68.2601 44.8595 67.4601 44.8394 66.7801 44.1794C65.8301 43.2594 64.8401 42.3496 63.9901 41.3396C63.6901 40.9896 63.5801 40.2796 63.7101 39.8296C63.8401 39.4296 64.4101 39.1696 64.8101 38.8096Z" fill="#4190E2"/>
<path d="M64.8105 30.1292C64.4905 29.8892 63.9605 29.6794 63.7805 29.3094C63.6005 28.9294 63.5705 28.2193 63.8005 27.9493C64.8605 26.7493 66.0005 25.6094 67.1905 24.5494C67.7005 24.0894 68.4805 24.2194 68.8305 24.7994C69.0905 25.2294 69.2505 26.0795 69.0105 26.3695C67.9905 27.5995 66.8005 28.6894 65.6505 29.8094C65.5005 29.9594 65.2105 29.9792 64.8105 30.1292Z" fill="#4190E2"/>
<path d="M67.29 35.8695C66.64 35.8695 65.9901 35.8995 65.3401 35.8595C64.5301 35.8095 64.0901 35.2994 64.0601 34.5294C64.0301 33.7994 64.4601 33.2093 65.1801 33.1593C66.6001 33.0693 68.0301 33.0693 69.4401 33.1593C70.2101 33.2093 70.6401 33.8195 70.5801 34.5995C70.5201 35.3695 70.0401 35.8395 69.2301 35.8595C68.5901 35.8995 67.94 35.8795 67.29 35.8695C67.29 35.8795 67.29 35.8795 67.29 35.8695Z" fill="#4190E2"/>
</svg>
